# xmcd
#
# Track frame offsets: 
#        150
#        15247
#        26790
#        43162
#        56172
#        73130
#        87500
#        101952
#        116892
#        129065
#        138915
#        154492
#
# Disc length: 2253 seconds
#
# Revision: 2
# Processed by: cddbd v1.5.1PL2 Copyright (c) Steve Scherf et al.
# Submitted via: ExactAudioCopy v0.95b4
#
DISCID=ac08cb0c
DTITLE=George Jones - 36 All Time Hits - Disc 3 - The Bartender Blues
DYEAR=1993
DGENRE=Country
TTITLE0=The King is Gone (So Are You)
TTITLE1=Wine (You've Used Me Long Enough)
TTITLE2=C.C. Waterback (w Merle Haggard)
TTITLE3=Tennessee Whiskey
TTITLE4=Bartenders Blues (w James Taylor)
TTITLE5=If Drinkin' Don't Kill Me (Her Memory Will)
TTITLE6=If I Could Bottle This Up (w Shelby Lynne)
TTITLE7=Wine Colored Roses
TTITLE8=They've Got Millions in Milwaukee
TTITLE9=I Gotta Get Drunk (w Willie Nelson)
TTITLE10=The Girl at the End of the Bar
TTITLE11=Yesterday's Wine (w Merle Haggard)
EXTD=
EXTT0=
EXTT1=
EXTT2=
EXTT3=
EXTT4=
EXTT5=
EXTT6=
EXTT7=
EXTT8=
EXTT9=
EXTT10=
EXTT11=
PLAYORDER=
